<?xml version="1.0" encoding="iso-8859-1"?>
<!-- Uploaded to: SVG Repo, www.svgrepo.com, Generator: SVG Repo Mixer Tools -->
<svg fill="#000000" version="1.1" id="Layer_1" xmlns="http://www.w3.org/2000/svg" xmlns:xlink="http://www.w3.org/1999/xlink" 
	 viewBox="0 0 500.092 500.092" xml:space="preserve">
<g>
	<g>
		<path d="M249.754,198.772c-25.564,0-46.736,18.908-50.416,43.464h100.828C296.482,217.68,275.314,198.772,249.754,198.772z"/>
	</g>
</g>
<g>
	<g>
		<path d="M385.126,0.004h-53.032V66.42c0,4.316-4,7.816-8.32,7.816h-22.208c-8.448,21.28-28.728,35.276-51.832,35.276
			c-23.096,0-43.376-13.996-51.828-35.276h-22.224c-4.308,0-7.684-3.5-7.684-7.816V0h-53.404c-18.12,0-32.548,14.836-32.548,32.948
			v209.288h101.496c3.776-33.204,32.012-59.092,66.212-59.092s62.432,25.888,66.208,59.092h102.084V32.948
			C418.046,14.836,403.242,0.004,385.126,0.004z"/>
	</g>
</g>
<g>
	<g>
		<path d="M215.266,74.236c7.14,12.044,20.044,19.648,34.468,19.648c14.424,0,27.336-7.604,34.476-19.648H215.266z"/>
	</g>
</g>
<g>
	<g>
		<rect x="183.646" width="132.84" height="58.604"/>
	</g>
</g>
<g>
	<g>
		<path d="M199.41,257.86c3.876,24.328,24.944,42.996,50.344,42.996c25.396,0,46.464-18.668,50.34-42.996H199.41z"/>
	</g>
</g>
<g>
	<g>
		<path d="M315.89,257.86c-3.992,32.976-32.1,58.624-66.136,58.624c-34.04,0-62.144-25.652-66.14-58.624H82.046v209.288
			c0,18.112,14.428,32.944,32.548,32.944h53.408v-66.416c0-4.316,3.376-7.816,7.684-7.816h22.216
			c8.448-21.28,28.732-35.276,51.828-35.276c23.1,0,43.384,13.996,51.828,35.276h22.22c4.32,0,8.32,3.5,8.32,7.816v66.416h53.028
			c18.116,0,32.92-14.832,32.92-32.944V257.86H315.89z"/>
	</g>
</g>
<g>
	<g>
		<path d="M249.726,406.212c-14.42,0-27.324,7.604-34.468,19.648h68.94C277.058,413.816,264.15,406.212,249.726,406.212z"/>
	</g>
</g>
<g>
	<g>
		<rect x="183.646" y="441.488" width="132.84" height="58.604"/>
	</g>
</g>
</svg>